<?xml version="1.0" standalone="no"?>
<!DOCTYPE svg PUBLIC "-//W3C//DTD SVG 20010904//EN"
 "http://www.w3.org/TR/2001/REC-SVG-20010904/DTD/svg10.dtd">
<svg version="1.0" xmlns="http://www.w3.org/2000/svg"
 width="512.000000pt" height="512.000000pt" viewBox="0 0 512.000000 512.000000"
 preserveAspectRatio="xMidYMid meet">
<metadata>
Created by potrace 1.14, written by Peter Selinger 2001-2017
</metadata>
<g transform="translate(0.000000,512.000000) scale(0.100000,-0.100000)"
fill="#000000" stroke="none">
<path d="M301 4148 c87 -83 121 -130 164 -221 42 -90 57 -157 55 -255 -1 -139
-78 -304 -199 -429 -28 -29 -51 -55 -51 -57 0 -3 21 -8 48 -11 170 -22 276
-85 325 -193 44 -98 18 -270 -56 -375 -34 -48 -80 -89 -91 -82 -3 3 -4 2 -1
-2 3 -4 12 -8 20 -9 7 -1 33 -5 57 -8 163 -23 300 -115 369 -248 46 -90 55
-291 20 -449 -5 -21 -8 -39 -7 -39 0 0 34 13 73 30 177 72 358 70 489 -6 75
-44 126 -120 154 -229 17 -66 20 -100 16 -195 -3 -63 -10 -133 -16 -155 -15
-61 -11 -74 10 -34 71 134 298 257 458 248 126 -7 219 -66 265 -167 17 -37 21
-67 22 -143 l0 -96 58 52 c114 104 257 151 427 142 117 -7 201 -34 293 -95 62
-40 156 -141 157 -167 0 -5 7 -19 16 -30 14 -19 14 -19 11 5 -6 37 21 128 54
187 94 165 309 277 483 251 27 -4 76 -20 108 -36 l58 -29 0 32 c0 17 7 57 15
89 46 174 164 313 356 414 118 63 208 89 344 98 44 4 81 7 82 8 12 10 -197
132 -292 171 -267 110 -576 119 -1005 30 -35 -7 -319 -88 -417 -119 -46 -14
-120 -38 -165 -52 -395 -124 -520 -129 -561 -26 -17 43 -13 152 9 266 4 23 11
64 19 109 4 28 3 28 -39 -15 -53 -54 -101 -78 -159 -78 -86 0 -146 66 -156
174 l-7 61 -18 -34 c-10 -19 -51 -67 -90 -106 -126 -126 -254 -150 -364 -68
-55 41 -76 93 -168 413 -60 206 -82 277 -104 325 -9 22 -23 58 -30 80 -21 69
-143 305 -211 410 -195 301 -472 535 -814 690 l-80 37 66 -64z"/>
</g>
</svg>
